# xmcd
#
# Track frame offsets: 
#        150
#        16231
#        35258
#        51863
#        71377
#        87651
#        103452
#        117716
#        130467
#        143368
#        153193
#        167448
#        186611
#        206477
#        226938
#        243981
#        265922
#        280240
#        293897
#
# Disc length: 4132 seconds
#
# Revision: 1
# Processed by: cddbd v1.5.2PL0 Copyright (c) Steve Scherf et al.
# Submitted via: ExactAudioCopyFreeDBPlugin 1.0
#
DISCID=17102213
DTITLE=Various Artist - The Cool Jazz Collection (Modern Classics)
DYEAR=2006
DGENRE=Jazz
TTITLE0=Michael Bublé - Come Fly With Me
TTITLE1=Jamie Cullum - I Get A Kick Out Of You
TTITLE2=Ray Charles - Come Rain Or Come Shine
TTITLE3=Diana Krall - I'm Just A Lucky So And So
TTITLE4=Rod Stewart - Every Time We Say Goodbye
TTITLE5=Jann Arden - You Don't Know Me
TTITLE6=Elvis Costello - She
TTITLE7=Brian Setzer Orchestra - Mack The Knife
TTITLE8=Matt Dusk - Fly Me To The Moon
TTITLE9=Amy Winehouse - (There Is) No Greater Love
TTITLE10=Queen Latifah - I Put A Spell On You
TTITLE11=Holly Cole Trio - I Can See Clearly Now
TTITLE12=George Michael - Brother Can You Spare A Dime
TTITLE13=Paul Anka - True
TTITLE14=Sarah Harmer And Jason Euringer - Summertime
TTITLE15=Aaron Neville - In The Still Of The Night
TTITLE16=Bet.E and Stef - Fever
TTITLE17=Denzal Sinclaire - Exactly Like You
TTITLE18=Ali Slaight - Kiss From A Rose
EXTD=YEAR: 2006
EXTT0=
EXTT1=
EXTT2=
EXTT3=
EXTT4=
EXTT5=
EXTT6=
EXTT7=
EXTT8=
EXTT9=
EXTT10=
EXTT11=
EXTT12=
EXTT13=
EXTT14=
EXTT15=
EXTT16=
EXTT17=
EXTT18=
PLAYORDER=
